<?xml version="1.0" encoding="UTF-8" standalone="no"?> <!-- Created with Vectornator for iOS (http://vectornator.io/) --><!DOCTYPE svg PUBLIC "-//W3C//DTD SVG 1.1//EN" "http://www.w3.org/Graphics/SVG/1.1/DTD/svg11.dtd">
<svg height="100%" style="fill-rule:nonzero;clip-rule:evenodd;stroke-linecap:round;stroke-linejoin:round;" xmlns:xlink="http://www.w3.org/1999/xlink" xmlns="http://www.w3.org/2000/svg" xml:space="preserve" width="100%" xmlns:vectornator="http://vectornator.io" version="1.1" viewBox="0 0 1080 1080">
<metadata>
<vectornator:setting key="DimensionsVisible" value="1"/>
<vectornator:setting key="PencilOnly" value="0"/>
<vectornator:setting key="SnapToPoints" value="0"/>
<vectornator:setting key="OutlineMode" value="0"/>
<vectornator:setting key="RulersVisible" value="1"/>
<vectornator:setting key="CMYKEnabledKey" value="0"/>
<vectornator:setting key="SnapToEdges" value="0"/>
<vectornator:setting key="GuidesVisible" value="1"/>
<vectornator:setting key="DisplayWhiteBackground" value="0"/>
<vectornator:setting key="doHistoryDisabled" value="0"/>
<vectornator:setting key="TimeLapseWatermarkDisabled" value="0"/>
<vectornator:setting key="SnapToGuides" value="1"/>
<vectornator:setting key="Units" value="Pixels"/>
<vectornator:setting key="DynamicGuides" value="1"/>
<vectornator:setting key="IsolateActiveLayer" value="0"/>
<vectornator:setting key="SnapToGrid" value="0"/>
</metadata>
<defs/>
<g id="Layer 1" vectornator:layerName="Layer 1">
<path stroke="#ff0000" stroke-width="20" d="M0+0L1080+0L1080+0L1080+1080L1080+1080L0+1080L0+1080L0+0L0+0Z" fill="#000000" stroke-linecap="round" opacity="1" stroke-linejoin="round"/>
<path stroke="#ff0000" stroke-width="10" d="M504.082+836.01L575.918+836.01L575.918+406.651L504.082+406.651L504.082+836.01ZM540+333.99C552.661+333.99+563.326+329.587+571.996+320.779C580.665+311.972+585+301.375+585+288.99C585+276.33+580.665+265.664+571.996+256.995C563.326+248.325+552.661+243.99+540+243.99C527.615+243.99+517.018+248.325+508.211+256.995C499.404+265.664+495+276.33+495+288.99C495+301.375+499.404+311.972+508.211+320.779C517.018+329.587+527.615+333.99+540+333.99Z" fill="none" stroke-linecap="butt" opacity="1" stroke-linejoin="round"/>
<path stroke="#000000" stroke-width="20" d="M496.046+1000.28L583.954+1000.28C584.532+1000.28+585+1001.17+585+1002.27L585+1157.73C585+1158.83+584.532+1159.72+583.954+1159.72L496.046+1159.72C495.468+1159.72+495+1158.83+495+1157.73L495+1002.27C495+1001.17+495.468+1000.28+496.046+1000.28Z" fill="#000000" stroke-linecap="round" opacity="1" stroke-linejoin="round"/>
</g>
</svg>
