<svg xmlns="http://www.w3.org/2000/svg" width="432.24" height="213.45" viewBox="0 0 432.24 213.45">
  <defs>
    <style>
      .cls-1 {
        fill: #fff;
      }
    </style>
  </defs>
  <title>Asset 1</title>
  <g id="Layer_2" data-name="Layer 2">
    <g id="Layer_1-2" data-name="Layer 1">
      <g>
        <rect x="9.12" y="29.96" width="414" height="153.53" transform="translate(-13.48 33.37) rotate(-8.56)"/>
        <g>
          <path class="cls-1" d="M93.45,151.22l10.94-3.46c1.3,4.4,3.58,7.58,6.81,9.54s7.44,2.55,12.6,1.77,8.91-2.42,11.11-4.92a9.62,9.62,0,0,0,2.65-8,7,7,0,0,0-4.24-5.54q-2.56-1.17-12.17-2.1-12.95-1.28-18.1-2.85a16.86,16.86,0,0,1-8.27-5.26,17.11,17.11,0,0,1-3.84-8.59,17.54,17.54,0,0,1,.8-8.59A18.69,18.69,0,0,1,96.36,106a23.6,23.6,0,0,1,6.72-4.39,34.46,34.46,0,0,1,9.58-2.83,39,39,0,0,1,14.17.19,19.06,19.06,0,0,1,9.71,4.81,24.36,24.36,0,0,1,5.46,9.77l-10.85,3.18a12.33,12.33,0,0,0-5.59-7.4Q121.49,107,114.89,108q-7.81,1.17-10.76,4.26a7.56,7.56,0,0,0-2.43,6.54,6.3,6.3,0,0,0,2,3.76,10.12,10.12,0,0,0,4.8,2.37q1.8.38,10.45,1.39a140.1,140.1,0,0,1,17.58,2.73,17.22,17.22,0,0,1,8.35,4.83,16.77,16.77,0,0,1,4.17,9.29,19.16,19.16,0,0,1-1.7,11.17,21.58,21.58,0,0,1-8.37,9.18,35.17,35.17,0,0,1-13.69,4.86q-13,2-20.69-2.42T93.45,151.22Z"/>
          <path class="cls-1" d="M165.21,160.82l-13.9-92.31,11.34-1.71,13.9,92.32Z"/>
          <path class="cls-1" d="M182.24,77.18l-2-13,11.34-1.71,2,13Zm11.94,79.28L184.11,89.59l11.34-1.71,10.07,66.88Z"/>
          <path class="cls-1" d="M226,151.67,224,138.76,237,136.82l1.94,12.91Z"/>
          <path class="cls-1" d="M251.06,127.48,262,124q2,6.6,6.82,9.54t12.6,1.77q7.8-1.17,11.1-4.92a9.62,9.62,0,0,0,2.66-8,7,7,0,0,0-4.25-5.55q-2.56-1.16-12.17-2.09-12.93-1.27-18.1-2.85A16.69,16.69,0,0,1,248.56,98a17.39,17.39,0,0,1,.8-8.58A18.46,18.46,0,0,1,254,82.29a23.53,23.53,0,0,1,6.71-4.39,34.53,34.53,0,0,1,9.59-2.83,39.22,39.22,0,0,1,14.16.18q6.3,1.38,9.71,4.82a24.17,24.17,0,0,1,5.46,9.77L288.76,93a12.26,12.26,0,0,0-5.59-7.4q-4.05-2.36-10.67-1.36-7.8,1.18-10.76,4.26a7.61,7.61,0,0,0-2.42,6.55,6.33,6.33,0,0,0,2,3.76,10.12,10.12,0,0,0,4.8,2.37q1.8.38,10.45,1.39a139.53,139.53,0,0,1,17.57,2.73,17.25,17.25,0,0,1,8.36,4.83,16.74,16.74,0,0,1,4.17,9.29,19.25,19.25,0,0,1-1.7,11.17,21.54,21.54,0,0,1-8.38,9.18,35.11,35.11,0,0,1-13.69,4.86q-13,2-20.68-2.42T251.06,127.48Z"/>
          <path class="cls-1" d="M346.3,123.19l3.15,9.76a42.1,42.1,0,0,1-8.42,2.3q-6.16.93-9.86-.51a11.06,11.06,0,0,1-5.56-4.41q-1.86-3-3.4-13.17l-5.79-38.48-8.32,1.25-1.32-8.81,8.31-1.25L312.6,53.31l10.24-8.5,3.52,23.36,11.4-1.72,1.33,8.82L327.69,77l5.89,39.1c.48,3.23,1,5.28,1.53,6.14a4.74,4.74,0,0,0,2.29,1.91,7.62,7.62,0,0,0,4,.24A37.82,37.82,0,0,0,346.3,123.19Z"/>
        </g>
      </g>
    </g>
  </g>
</svg>
