<?xml version="1.0" encoding="UTF-8" standalone="no"?> <!-- Created with Vectornator for iOS (http://vectornator.io/) --><!DOCTYPE svg PUBLIC "-//W3C//DTD SVG 1.1//EN" "http://www.w3.org/Graphics/SVG/1.1/DTD/svg11.dtd">
<svg height="100%" style="fill-rule:nonzero;clip-rule:evenodd;stroke-linecap:round;stroke-linejoin:round;" xmlns:xlink="http://www.w3.org/1999/xlink" xmlns="http://www.w3.org/2000/svg" xml:space="preserve" width="100%" xmlns:vectornator="http://vectornator.io" version="1.1" viewBox="0 0 800 800">
<metadata>
<vectornator:setting key="DimensionsVisible" value="1"/>
<vectornator:setting key="PencilOnly" value="0"/>
<vectornator:setting key="SnapToPoints" value="0"/>
<vectornator:setting key="OutlineMode" value="0"/>
<vectornator:setting key="CMYKEnabledKey" value="0"/>
<vectornator:setting key="GuidesVisible" value="1"/>
<vectornator:setting key="SnapToEdges" value="0"/>
<vectornator:setting key="RulersVisible" value="1"/>
<vectornator:setting key="DisplayWhiteBackground" value="0"/>
<vectornator:setting key="doHistoryDisabled" value="0"/>
<vectornator:setting key="SnapToGuides" value="1"/>
<vectornator:setting key="TimeLapseWatermarkDisabled" value="0"/>
<vectornator:setting key="Units" value="Pixels"/>
<vectornator:setting key="SnapToGrid" value="0"/>
<vectornator:setting key="IsolateActiveLayer" value="0"/>
<vectornator:setting key="DynamicGuides" value="1"/>
</metadata>
<defs/>
<g id="Layer 3" vectornator:layerName="Layer 3" visibility="hidden">
<path stroke="#ff0000" stroke-width="7.36" d="M-180.317-90.0291L932.904-90.0291C932.922-90.0291+932.937-90.0147+932.937-89.9969L932.937+870.323C932.937+870.341+932.922+870.355+932.904+870.355L-180.317+870.355C-180.335+870.355-180.351+870.341-180.351+870.323L-180.351-89.9969C-180.351-90.0147-180.335-90.0291-180.317-90.0291Z" fill="#000000" stroke-linecap="butt" opacity="1" stroke-linejoin="round"/>
</g>
<g id="Layer 1" vectornator:layerName="Layer 1">
<path stroke="#ff0000" stroke-width="10" d="M7.80783+270L792.192+270C792.214+270+792.231+270.012+792.231+270.027L792.231+588.661C792.231+588.676+792.214+588.688+792.192+588.688L7.80783+588.688C7.7864+588.688+7.76903+588.676+7.76903+588.661L7.76903+270.027C7.76903+270.012+7.7864+270+7.80783+270Z" fill="#000000" stroke-linecap="butt" opacity="1" stroke-linejoin="round"/>
</g>
<g id="Layer 2" vectornator:layerName="Layer 2">
<path d="M169.203+505.329C180.395+505.329+190.043+503.599+198.149+500.14C206.255+496.681+212.495+491.763+216.87+485.387C221.245+479.011+223.433+471.482+223.433+462.8L223.433+462.698C223.433+451.506+220.075+442.671+213.36+436.194C206.645+429.716+195.758+424.815+180.7+421.492L164.421+417.93C154.857+415.828+147.803+412.843+143.258+408.977C138.713+405.111+136.441+400.193+136.441+394.224L136.441+394.122C136.441+389.374+137.781+385.237+140.46+381.709C143.139+378.182+146.921+375.435+151.804+373.468C156.688+371.501+162.386+370.518+168.898+370.518C175.138+370.518+180.615+371.467+185.329+373.366C190.043+375.266+193.859+377.979+196.776+381.506C199.692+385.033+201.524+389.306+202.27+394.326L202.473+395.75L220.787+395.75L220.686+394.224C220.143+386.22+217.616+379.166+213.106+373.061C208.595+366.957+202.575+362.191+195.046+358.766C187.517+355.341+178.97+353.628+169.406+353.628C159.368+353.628+150.465+355.375+142.698+358.868C134.932+362.361+128.844+367.177+124.435+373.316C120.026+379.454+117.788+386.559+117.72+394.631L117.72+394.733C117.72+405.45+121.162+414.115+128.047+420.728C134.932+427.342+145.53+432.243+159.842+435.431L176.121+438.992C186.228+441.23+193.52+444.282+197.996+448.149C202.473+452.015+204.712+457.17+204.712+463.614L204.712+463.716C204.712+468.735+203.304+473.11+200.489+476.841C197.674+480.571+193.689+483.437+188.534+485.438C183.379+487.439+177.275+488.439+170.22+488.439C163.166+488.439+156.943+487.473+151.55+485.54C146.158+483.607+141.834+480.859+138.578+477.298C135.322+473.737+133.321+469.515+132.575+464.631L132.371+463.207L114.057+463.207L114.159+464.631C114.77+472.974+117.432+480.198+122.146+486.303C126.86+492.407+133.236+497.105+141.274+500.394C149.312+503.684+158.621+505.329+169.203+505.329Z" opacity="1" fill="#ff0000"/>
<path d="M244.799+502.887L333.927+502.887L333.927+486.405L263.113+486.405L263.113+356.07L244.799+356.07L244.799+502.887Z" opacity="1" fill="#ff0000"/>
<path d="M352.445+502.887L370.148+502.887L370.148+397.073L352.445+397.073L352.445+502.887ZM361.296+379.166C364.417+379.166+367.045+378.081+369.182+375.91C371.318+373.739+372.387+371.128+372.387+368.076C372.387+364.956+371.318+362.327+369.182+360.191C367.045+358.054+364.417+356.986+361.296+356.986C358.244+356.986+355.633+358.054+353.462+360.191C351.292+362.327+350.206+364.956+350.206+368.076C350.206+371.128+351.292+373.739+353.462+375.91C355.633+378.081+358.244+379.166+361.296+379.166Z" opacity="1" fill="#ff0000"/>
<path d="M405.148+504.312C408.404+504.312+411.151+503.192+413.39+500.954C415.628+498.716+416.747+495.969+416.747+492.713C416.747+489.457+415.628+486.71+413.39+484.471C411.151+482.233+408.404+481.114+405.148+481.114C401.892+481.114+399.145+482.233+396.907+484.471C394.669+486.71+393.549+489.457+393.549+492.713C393.549+495.969+394.669+498.716+396.907+500.954C399.145+503.192+401.892+504.312+405.148+504.312Z" opacity="1" fill="#ff0000"/>
<path d="M489.8+505.329C500.992+505.329+510.64+503.599+518.746+500.14C526.852+496.681+533.092+491.763+537.467+485.387C541.842+479.011+544.029+471.482+544.029+462.8L544.029+462.698C544.029+451.506+540.672+442.671+533.957+436.194C527.242+429.716+516.355+424.815+501.297+421.492L485.018+417.93C475.454+415.828+468.399+412.843+463.855+408.977C459.31+405.111+457.038+400.193+457.038+394.224L457.038+394.122C457.038+389.374+458.378+385.237+461.057+381.709C463.736+378.182+467.518+375.435+472.401+373.468C477.285+371.501+482.983+370.518+489.494+370.518C495.735+370.518+501.212+371.467+505.926+373.366C510.64+375.266+514.456+377.979+517.372+381.506C520.289+385.033+522.121+389.306+522.867+394.326L523.07+395.75L541.384+395.75L541.282+394.224C540.74+386.22+538.213+379.166+533.702+373.061C529.192+366.957+523.172+362.191+515.643+358.766C508.114+355.341+499.567+353.628+490.003+353.628C479.964+353.628+471.062+355.375+463.295+358.868C455.529+362.361+449.441+367.177+445.032+373.316C440.623+379.454+438.385+386.559+438.317+394.631L438.317+394.733C438.317+405.45+441.759+414.115+448.644+420.728C455.529+427.342+466.127+432.243+480.439+435.431L496.718+438.992C506.825+441.23+514.117+444.282+518.593+448.149C523.07+452.015+525.309+457.17+525.309+463.614L525.309+463.716C525.309+468.735+523.901+473.11+521.086+476.841C518.271+480.571+514.286+483.437+509.131+485.438C503.976+487.439+497.871+488.439+490.817+488.439C483.763+488.439+477.539+487.473+472.147+485.54C466.755+483.607+462.43+480.859+459.175+477.298C455.919+473.737+453.918+469.515+453.172+464.631L452.968+463.207L434.654+463.207L434.756+464.631C435.366+472.974+438.029+480.198+442.743+486.303C447.457+492.407+453.833+497.105+461.871+500.394C469.909+503.684+479.218+505.329+489.8+505.329Z" opacity="1" fill="#ff0000"/>
<path d="M602.533+502.887L620.847+502.887L620.847+372.552L667.14+372.552L667.14+356.07L556.239+356.07L556.239+372.552L602.533+372.552L602.533+502.887Z" opacity="1" fill="#ff0000"/>
</g>
</svg>
