<svg xmlns="http://www.w3.org/2000/svg" viewBox="0 0 2880 2880"><defs><style>.cls-1{fill:#fff;}.cls-2{fill:red;}</style></defs><title>red-white</title><g id="Layer_2" data-name="Layer 2"><rect class="cls-1" width="2880" height="2880"/></g><g id="Layer_1" data-name="Layer 1"><path class="cls-2" d="M550,1619l78.85-12.41q6.64,47.42,37,72.66t84.84,25.25q54.91,0,81.51-22.38t26.58-52.49q0-27-23.48-42.53-16.4-10.62-81.51-27-87.72-22.15-121.6-38.32T580.82,1477q-17.51-28.58-17.5-63.13a121.16,121.16,0,0,1,14.4-58.25,128.93,128.93,0,0,1,39.2-44.52q18.62-13.72,50.73-23.26a241.1,241.1,0,0,1,68.88-9.52q55.38,0,97.24,16t61.79,43.19q19.94,27.24,27.47,72.87l-78,10.63q-5.31-36.32-30.78-56.7t-72-20.38q-54.93,0-78.41,18.16t-23.48,42.53a44,44,0,0,0,9.75,27.91q9.74,12.85,30.56,21.26,12,4.44,70.44,20.38,84.61,22.59,118.06,37T921.7,1553q19,27.48,19,68.22,0,39.87-23.26,75.09t-67.11,54.49Q806.52,1770,751.15,1770q-91.7,0-139.76-38.1T550,1619Z"/><path class="cls-2" d="M1033.78,1759.4V1110h79.74V1759.4Z"/><path class="cls-2" d="M1237.55,1201.67V1110h79.74v91.7Zm0,557.73V1288.94h79.74V1759.4Z"/><path class="cls-2" d="M1461.26,1759.4v-90.82h90.82v90.82Z"/><path class="cls-2" d="M1658.84,1619l78.85-12.41q6.64,47.42,37,72.66t84.83,25.25q54.93,0,81.51-22.38t26.58-52.49q0-27-23.48-42.53-16.38-10.62-81.51-27-87.7-22.15-121.6-38.32T1689.63,1477q-17.52-28.58-17.5-63.13a121.27,121.27,0,0,1,14.39-58.25,129,129,0,0,1,39.21-44.52q18.6-13.72,50.72-23.26a241.17,241.17,0,0,1,68.89-9.52q55.37,0,97.23,16t61.8,43.19q19.94,27.24,27.47,72.87l-78,10.63q-5.31-36.32-30.79-56.7t-72-20.38q-54.93,0-78.41,18.16t-23.48,42.53a44,44,0,0,0,9.74,27.91q9.73,12.85,30.57,21.26,12,4.44,70.44,20.38,84.6,22.59,118,37t52.5,41.86q19,27.48,19,68.22,0,39.87-23.26,75.09t-67.11,54.49Q1915.33,1770,1860,1770q-91.71,0-139.77-38.1T1658.84,1619Z"/><path class="cls-2" d="M2318.45,1688.07l11.52,70.44q-33.67,7.08-60.25,7.09-43.42,0-67.33-13.73t-33.67-36.11q-9.75-22.37-9.75-94.13V1351H2100.5v-62H2159V1172.43l79.3-47.84v164.35h80.18v62h-80.18v275.1q0,34.11,4.21,43.85a33.17,33.17,0,0,0,13.73,15.51q9.52,5.76,27.24,5.76Q2296.74,1691.18,2318.45,1688.07Z"/></g></svg>