<?xml version="1.0" encoding="UTF-8" standalone="no"?>
<!DOCTYPE svg PUBLIC "-//W3C//DTD SVG 1.1//EN" "http://www.w3.org/Graphics/SVG/1.1/DTD/svg11.dtd">
<!-- Created with Vectornator (http://vectornator.io/) -->
<svg height="100%" stroke-miterlimit="10" style="fill-rule:nonzero;clip-rule:evenodd;stroke-linecap:round;stroke-linejoin:round;" version="1.1" viewBox="0 0 2160 2160" width="100%" xml:space="preserve" xmlns="http://www.w3.org/2000/svg" xmlns:vectornator="http://vectornator.io" xmlns:xlink="http://www.w3.org/1999/xlink">
<defs/>
<g id="Layer-2" vectornator:layerName="Layer 2">
<path d="M0 0L2160 0L2160 2160L0 2160L0 0Z" fill="#ffffff" fill-rule="evenodd" opacity="1" stroke="none"/>
</g>
<g id="Layer-3" vectornator:layerName="Layer 3">
<path d="M402.748 817.838L1757.25 817.838L1757.25 1342.16L402.748 1342.16L402.748 817.838Z" fill="#ff4e4e" fill-opacity="0" fill-rule="evenodd" opacity="1" stroke="#ff0000" stroke-linecap="round" stroke-linejoin="round" stroke-width="7"/>
</g>
<g id="Layer-1" vectornator:layerName="Layer 1">
<g opacity="1">
<path d="M653.93 1241.52C675.128 1241.52 693.788 1238.01 709.909 1230.99C726.03 1223.97 738.584 1214.15 747.572 1201.54C756.561 1188.93 761.055 1174.25 761.055 1157.49L761.055 1157.28C761.055 1135.54 754.284 1118.39 740.743 1105.83C727.203 1093.28 704.404 1083.29 672.349 1075.89L638.613 1068.04C611.213 1061.64 591.321 1052.88 578.939 1041.75C566.556 1030.62 560.364 1015.96 560.364 997.754L560.364 997.335C560.364 983.64 564.183 971.592 571.821 961.191C579.459 950.79 589.968 942.636 603.347 936.73C616.726 930.823 632.089 927.87 649.435 927.87C667.278 927.87 683.043 931.054 696.732 937.421C710.421 943.788 721.406 952.677 729.688 964.087C737.969 975.497 742.777 988.947 744.11 1004.44L744.346 1007.09L755.376 1007.09L755.157 1004.42C753.722 986.97 748.398 971.724 739.187 958.686C729.976 945.648 717.693 935.52 702.337 928.302C686.982 921.084 669.375 917.475 649.517 917.475C630.392 917.475 613.267 920.921 598.143 927.814C583.018 934.707 571.094 944.17 562.371 956.203C553.648 968.237 549.281 981.975 549.269 997.417L549.269 997.836C549.269 1018.96 555.986 1035.84 569.419 1048.49C582.851 1061.14 604.526 1070.95 634.443 1077.93L668.175 1085.78C697.685 1092.6 718.693 1101.55 731.2 1112.61C743.706 1123.67 749.96 1138.61 749.96 1157.43L749.96 1157.64C749.96 1172.32 745.928 1185.18 737.865 1196.22C729.801 1207.26 718.586 1215.84 704.22 1221.95C689.853 1228.07 673.144 1231.13 654.094 1231.13C634.775 1231.13 617.745 1227.94 603.004 1221.57C588.263 1215.19 576.522 1206.27 567.78 1194.78C559.039 1183.3 554.003 1169.96 552.672 1154.76L552.436 1151.9L541.406 1151.9L541.625 1154.76C542.935 1172.13 548.414 1187.34 558.062 1200.37C567.71 1213.41 580.758 1223.53 597.206 1230.73C613.653 1237.92 632.561 1241.52 653.93 1241.52Z" fill="#ff0000" fill-rule="evenodd" opacity="1" stroke="none"/>
<path d="M799.853 1237.09L980.076 1237.09L980.076 1226.76L810.883 1226.76L810.883 921.908L799.853 921.908L799.853 1237.09Z" fill="#ff0000" fill-rule="evenodd" opacity="1" stroke="none"/>
<path d="M1020.43 1237.09L1031.37 1237.09L1031.37 1009.93L1020.43 1009.93L1020.43 1237.09ZM1025.9 963.609C1028.69 963.609 1031.07 962.66 1033.03 960.761C1034.99 958.863 1035.97 956.523 1035.97 953.743C1035.97 950.951 1034.99 948.609 1033.03 946.716C1031.07 944.823 1028.69 943.876 1025.9 943.876C1023.25 943.876 1020.91 944.823 1018.88 946.716C1016.85 948.609 1015.83 950.951 1015.83 953.743C1015.83 956.523 1016.85 958.863 1018.88 960.761C1020.91 962.66 1023.25 963.609 1025.9 963.609Z" fill="#ff0000" fill-rule="evenodd" opacity="1" stroke="none"/>
<path d="M1103.27 1239.34C1106.35 1239.34 1108.98 1238.25 1111.16 1236.07C1113.34 1233.89 1114.43 1231.26 1114.43 1228.18C1114.43 1225.09 1113.34 1222.46 1111.16 1220.28C1108.98 1218.1 1106.35 1217.01 1103.27 1217.01C1100.19 1217.01 1097.55 1218.1 1095.38 1220.28C1093.2 1222.46 1092.11 1225.09 1092.11 1228.18C1092.11 1231.26 1093.2 1233.89 1095.38 1236.07C1097.55 1238.25 1100.19 1239.34 1103.27 1239.34Z" fill="#ff0000" fill-rule="evenodd" opacity="1" stroke="none"/>
<path d="M1272.47 1241.52C1293.67 1241.52 1312.33 1238.01 1328.45 1230.99C1344.57 1223.97 1357.12 1214.15 1366.11 1201.54C1375.1 1188.93 1379.59 1174.25 1379.59 1157.49L1379.59 1157.28C1379.59 1135.54 1372.82 1118.39 1359.28 1105.83C1345.74 1093.28 1322.94 1083.29 1290.89 1075.89L1257.15 1068.04C1229.75 1061.64 1209.86 1052.88 1197.48 1041.75C1185.09 1030.62 1178.9 1015.96 1178.9 997.754L1178.9 997.335C1178.9 983.64 1182.72 971.592 1190.36 961.191C1198 950.79 1208.51 942.636 1221.89 936.73C1235.27 930.823 1250.63 927.87 1267.97 927.87C1285.82 927.87 1301.58 931.054 1315.27 937.421C1328.96 943.788 1339.94 952.677 1348.23 964.087C1356.51 975.497 1361.32 988.947 1362.65 1004.44L1362.88 1007.09L1373.91 1007.09L1373.7 1004.42C1372.26 986.97 1366.94 971.724 1357.73 958.686C1348.52 945.648 1336.23 935.52 1320.88 928.302C1305.52 921.084 1287.91 917.475 1268.06 917.475C1248.93 917.475 1231.81 920.921 1216.68 927.814C1201.56 934.707 1189.63 944.17 1180.91 956.203C1172.19 968.237 1167.82 981.975 1167.81 997.417L1167.81 997.836C1167.81 1018.96 1174.52 1035.84 1187.96 1048.49C1201.39 1061.14 1223.07 1070.95 1252.98 1077.93L1286.71 1085.78C1316.22 1092.6 1337.23 1101.55 1349.74 1112.61C1362.25 1123.67 1368.5 1138.61 1368.5 1157.43L1368.5 1157.64C1368.5 1172.32 1364.47 1185.18 1356.4 1196.22C1348.34 1207.26 1337.13 1215.84 1322.76 1221.95C1308.39 1228.07 1291.68 1231.13 1272.63 1231.13C1253.31 1231.13 1236.28 1227.94 1221.54 1221.57C1206.8 1215.19 1195.06 1206.27 1186.32 1194.78C1177.58 1183.3 1172.54 1169.96 1171.21 1154.76L1170.98 1151.9L1159.95 1151.9L1160.16 1154.76C1161.47 1172.13 1166.95 1187.34 1176.6 1200.37C1186.25 1213.41 1199.3 1223.53 1215.74 1230.73C1232.19 1237.92 1251.1 1241.52 1272.47 1241.52Z" fill="#ff0000" fill-rule="evenodd" opacity="1" stroke="none"/>
<path d="M1496.85 1237.09L1507.88 1237.09L1507.88 932.239L1621.41 932.239L1621.41 921.908L1383.33 921.908L1383.33 932.239L1496.85 932.239L1496.85 1237.09Z" fill="#ff0000" fill-rule="evenodd" opacity="1" stroke="none"/>
</g>
</g>
</svg>
